<svg width="16" height="14" viewBox="0 0 16 14" fill="none" xmlns="http://www.w3.org/2000/svg">
<path d="M2.375 5.71937L2.37516 5.71925L3.89928 4.5L2.37516 3.28075L2.37515 3.28075C2.27258 3.19869 2.18718 3.09724 2.12382 2.98217C2.06046 2.86711 2.02038 2.7407 2.00587 2.61015C1.99137 2.4796 2.00272 2.34747 2.03928 2.2213C2.07583 2.09514 2.13688 1.97741 2.21894 1.87484C2.301 1.77227 2.40245 1.68687 2.51751 1.62351C2.63258 1.56014 2.75899 1.52007 2.88954 1.50556C3.02009 1.49106 3.15222 1.50241 3.27839 1.53896C3.40455 1.57552 3.52228 1.63657 3.62485 1.71863L6.12461 3.71844C6.12469 3.7185 6.12477 3.71856 6.12485 3.71863C6.24198 3.81228 6.33655 3.93107 6.40156 4.06622C6.46661 4.20147 6.50039 4.34961 6.50039 4.49969C6.50039 4.64976 6.46661 4.79791 6.40156 4.93315C6.33651 5.06839 6.24185 5.18726 6.12461 5.28094M2.375 5.71937L4.29948 4.17985L2.6875 2.89031C2.6362 2.84927 2.59349 2.79853 2.5618 2.74099C2.53011 2.68344 2.51007 2.62022 2.50282 2.55493C2.49556 2.48964 2.50124 2.42356 2.51952 2.36046C2.5378 2.29736 2.56834 2.23849 2.60938 2.18719C2.65041 2.13589 2.70115 2.09318 2.7587 2.06149C2.81624 2.0298 2.87947 2.00976 2.94476 2.0025C3.01005 1.99525 3.07613 2.00092 3.13923 2.01921C3.20232 2.03749 3.2612 2.06802 3.3125 2.10906L5.8125 4.10906C5.87112 4.1559 5.91845 4.21533 5.95098 4.28296C5.9835 4.35058 6.00039 4.42465 6.00039 4.49969C6.00039 4.57472 5.9835 4.6488 5.95098 4.71642C5.91845 4.78404 5.87112 4.84347 5.8125 4.89031L3.3125 6.89031M2.375 5.71937C2.21327 5.84886 2.09575 6.02539 2.03868 6.22456C1.98162 6.42373 1.98782 6.6357 2.05644 6.83119C2.12505 7.02668 2.2527 7.19603 2.42172 7.31584C2.59075 7.43565 2.79282 7.5 3 7.5C3.2272 7.5 3.44764 7.42263 3.625 7.28063M2.375 5.71937L2.6875 6.10969C2.60663 6.17443 2.54787 6.26269 2.51934 6.36228C2.49081 6.46186 2.49391 6.56785 2.52822 6.6656C2.56253 6.76334 2.62635 6.84802 2.71086 6.90792C2.79538 6.96782 2.89641 7 3 7C3.1136 7 3.22382 6.96131 3.3125 6.89031M6.12461 5.28094L5.81265 4.8905L6.12485 5.28075L6.12461 5.28094ZM6.12461 5.28094L5.83329 5.51399M5.83329 5.51399C5.62992 5.54837 5.44067 5.64512 5.29289 5.79289C5.19819 5.8876 5.12444 5.99934 5.07464 6.12091M5.83329 5.51399C5.88802 5.50474 5.94377 5.5 6 5.5H8C8.26522 5.5 8.51957 5.60536 8.70711 5.79289C8.89464 5.98043 9 6.23478 9 6.5C9 6.76522 8.89464 7.01957 8.70711 7.20711C8.51957 7.39464 8.26522 7.5 8 7.5H6C5.73478 7.5 5.48043 7.39464 5.29289 7.20711C5.10536 7.01957 5 6.76522 5 6.5C5 6.36871 5.02582 6.24009 5.07464 6.12091M5.83329 5.51399L5.37812 5.87812L5.07464 6.12091M5.07464 6.12091L3.625 7.28063M3.625 7.28063L3.3125 6.89031M3.625 7.28063L3.62485 7.28075L3.3125 6.89031M1.43998 0.939979C1.72123 0.658726 2.10255 0.500501 2.50029 0.5H13.4997C13.8975 0.500501 14.2788 0.658726 14.56 0.939979C14.8413 1.22129 14.9996 1.60271 15 2.00055V11.9995C14.9996 12.3973 14.8413 12.7787 14.56 13.06C14.2787 13.3413 13.8973 13.4996 13.4995 13.5H2.50055C2.10271 13.4996 1.72129 13.3413 1.43998 13.06C1.15873 12.7788 1.0005 12.3975 1 11.9997V2.00029C1.0005 1.60255 1.15873 1.22123 1.43998 0.939979Z" fill="black" stroke="black"/>
</svg>
