<svg width="16" height="16" viewBox="0 0 16 16" fill="none" xmlns="http://www.w3.org/2000/svg">
<path d="M14.3732 1.66407C14.3275 1.6139 14.2721 1.5735 14.2104 1.54533C14.1487 1.51715 14.0819 1.50178 14.0141 1.50015C13.9463 1.49851 13.8788 1.51064 13.8158 1.53581C13.7528 1.56098 13.6956 1.59866 13.6475 1.64657L13.261 2.03126C13.2141 2.07814 13.1878 2.1417 13.1878 2.20798C13.1878 2.27425 13.2141 2.33782 13.261 2.3847L13.6154 2.73845C13.6386 2.76178 13.6662 2.7803 13.6966 2.79294C13.727 2.80558 13.7596 2.81208 13.7925 2.81208C13.8255 2.81208 13.8581 2.80558 13.8885 2.79294C13.9189 2.7803 13.9465 2.76178 13.9697 2.73845L14.3466 2.36345C14.5372 2.17313 14.555 1.86313 14.3732 1.66407ZM12.4794 2.81251L6.83816 8.44376C6.80396 8.47782 6.7791 8.52012 6.76598 8.56657L6.50504 9.34376C6.49879 9.36485 6.49834 9.38723 6.50376 9.40855C6.50917 9.42987 6.52023 9.44933 6.53579 9.46488C6.55134 9.48044 6.5708 9.4915 6.59212 9.49692C6.61344 9.50233 6.63583 9.50188 6.65691 9.49563L7.43348 9.2347C7.47993 9.22157 7.52222 9.19671 7.55629 9.16251L13.1875 3.52063C13.2396 3.46798 13.2689 3.3969 13.2689 3.32282C13.2689 3.24875 13.2396 3.17767 13.1875 3.12501L12.8766 2.81251C12.8239 2.75994 12.7525 2.73041 12.678 2.73041C12.6036 2.73041 12.5321 2.75994 12.4794 2.81251Z" fill="black"/>
<path d="M12.0731 6.05188L8.26406 9.86844C8.11684 10.016 7.9359 10.1255 7.73688 10.1875L6.9275 10.4584C6.73542 10.5127 6.53234 10.5147 6.3392 10.4644C6.14606 10.414 5.96985 10.313 5.82871 10.1719C5.68758 10.0308 5.58662 9.85456 5.53626 9.66142C5.4859 9.46828 5.48794 9.26521 5.54219 9.07312L5.81313 8.26375C5.87492 8.06478 5.98421 7.88385 6.13156 7.73656L9.94812 3.92688C9.98311 3.89193 10.0069 3.8474 10.0166 3.7989C10.0263 3.75041 10.0214 3.70014 10.0025 3.65445C9.98357 3.60875 9.95154 3.56969 9.91044 3.5422C9.86934 3.51471 9.82101 3.50002 9.77156 3.5H3.25C2.78587 3.5 2.34075 3.68437 2.01256 4.01256C1.68437 4.34075 1.5 4.78587 1.5 5.25V12.75C1.5 13.2141 1.68437 13.6592 2.01256 13.9874C2.34075 14.3156 2.78587 14.5 3.25 14.5H10.75C11.2141 14.5 11.6592 14.3156 11.9874 13.9874C12.3156 13.6592 12.5 13.2141 12.5 12.75V6.22844C12.5 6.17899 12.4853 6.13066 12.4578 6.08956C12.4303 6.04846 12.3912 6.01643 12.3456 5.99753C12.2999 5.97864 12.2496 5.97371 12.2011 5.98338C12.1526 5.99306 12.1081 6.01689 12.0731 6.05188Z" fill="black"/>
</svg>
