<svg width="10" height="14" viewBox="0 0 10 14" fill="none" xmlns="http://www.w3.org/2000/svg">
    <path d="M9.99938 4.00111C9.99953 3.65042 9.90747 3.30584 9.73243 3.00195C9.55739 2.69806 9.30551 2.44554 9.00207 2.26972C8.69863 2.0939 8.3543 2.00096 8.0036 2.00022C7.6529 1.99948 7.30817 2.09096 7.00399 2.2655C6.69981 2.44004 6.44688 2.6915 6.27055 2.99464C6.09423 3.29779 6.00071 3.64197 5.99939 3.99267C5.99807 4.34336 6.08898 4.68824 6.26302 4.99271C6.43705 5.29718 6.68808 5.55054 6.99094 5.72736C6.91938 6.63611 6.36344 6.88361 4.64719 7.24049C4.09219 7.35549 3.52438 7.4733 3 7.6758V3.73205C3.38128 3.51192 3.67928 3.17212 3.84776 2.76537C4.01624 2.35861 4.0458 1.90763 3.93185 1.48236C3.8179 1.0571 3.56681 0.681312 3.21752 0.413293C2.86824 0.145275 2.44027 0 2 0C1.55973 0 1.13177 0.145275 0.782478 0.413293C0.433189 0.681312 0.182099 1.0571 0.068149 1.48236C-0.0458008 1.90763 -0.0162418 2.35861 0.152242 2.76537C0.320725 3.17212 0.618717 3.51192 1 3.73205V10.2702C0.619296 10.49 0.321629 10.8292 0.153038 11.2352C-0.0155529 11.6412 -0.045675 12.0914 0.0673306 12.5163C0.180336 12.9411 0.430173 13.3169 0.778201 13.5855C1.12623 13.8541 1.55306 14.0005 1.99267 14.0021C2.43229 14.0038 2.8602 13.8605 3.21022 13.5945C3.56024 13.3285 3.81287 12.9546 3.92903 12.5306C4.0452 12.1067 4.01844 11.6562 3.85287 11.249C3.68731 10.8417 3.39218 10.5003 3.01313 10.2777C3.08781 9.71518 3.51313 9.51736 5.0525 9.19893C5.90969 9.02174 6.79563 8.8383 7.54563 8.35674C8.45188 7.77611 8.93719 6.89486 8.99438 5.73518C9.29964 5.5601 9.55331 5.30759 9.72976 5.00312C9.90622 4.69865 9.99922 4.35302 9.99938 4.00111ZM1.99938 1.00111C2.19716 1.00111 2.3905 1.05976 2.55495 1.16964C2.7194 1.27953 2.84757 1.4357 2.92326 1.61843C2.99894 1.80116 3.01875 2.00222 2.98016 2.1962C2.94158 2.39018 2.84633 2.56837 2.70648 2.70822C2.56663 2.84807 2.38845 2.94331 2.19447 2.9819C2.00049 3.02048 1.79942 3.00068 1.61669 2.92499C1.43397 2.84931 1.27779 2.72113 1.16791 2.55668C1.05802 2.39223 0.999376 2.19889 0.999376 2.00111C0.999376 1.7359 1.10473 1.48154 1.29227 1.29401C1.47981 1.10647 1.73416 1.00111 1.99938 1.00111ZM1.99938 13.0011C1.80159 13.0011 1.60825 12.9425 1.44381 12.8326C1.27936 12.7227 1.15118 12.5665 1.0755 12.3838C0.999809 12.2011 0.980005 12 1.01859 11.806C1.05718 11.612 1.15242 11.4339 1.29227 11.294C1.43212 11.1542 1.6103 11.0589 1.80429 11.0203C1.99827 10.9817 2.19933 11.0015 2.38206 11.0772C2.56479 11.1529 2.72096 11.2811 2.83085 11.4455C2.94073 11.61 2.99938 11.8033 2.99938 12.0011C2.99938 12.2663 2.89402 12.5207 2.70648 12.7082C2.51895 12.8958 2.26459 13.0011 1.99938 13.0011ZM7.99938 5.00111C7.80159 5.00111 7.60825 4.94246 7.44381 4.83258C7.27936 4.7227 7.15118 4.56652 7.0755 4.3838C6.99981 4.20107 6.98001 4 7.01859 3.80602C7.05718 3.61204 7.15242 3.43386 7.29227 3.29401C7.43212 3.15415 7.6103 3.05891 7.80429 3.02033C7.99827 2.98174 8.19933 3.00155 8.38206 3.07723C8.56479 3.15292 8.72096 3.28109 8.83084 3.44554C8.94073 3.60999 8.99938 3.80333 8.99938 4.00111C8.99938 4.26633 8.89402 4.52068 8.70648 4.70822C8.51895 4.89576 8.26459 5.00111 7.99938 5.00111Z"
          fill="black"/>
</svg>
