<svg width="16" height="14" viewBox="0 0 16 14" fill="none" xmlns="http://www.w3.org/2000/svg">
<path d="M12.3125 14C12.2073 14.0004 12.1046 13.9676 12.0191 13.9062L8 10.9925L3.98094 13.9062C3.89507 13.9685 3.79163 14.0019 3.68555 14.0015C3.57948 14.0011 3.47628 13.967 3.39087 13.9041C3.30546 13.8412 3.24227 13.7528 3.21043 13.6516C3.17859 13.5504 3.17975 13.4417 3.21375 13.3412L4.78125 8.69843L0.718748 5.91249C0.630752 5.85221 0.564337 5.76537 0.529208 5.66466C0.494079 5.56395 0.492077 5.45464 0.523494 5.35271C0.55491 5.25078 0.6181 5.16157 0.70383 5.09811C0.78956 5.03465 0.893337 5.00027 0.999998 4.99999H6.01187L7.52437 0.345301C7.55696 0.244808 7.62053 0.157218 7.70598 0.0950954C7.79143 0.0329731 7.89436 -0.000488281 8 -0.000488281C8.10564 -0.000488281 8.20857 0.0329731 8.29402 0.0950954C8.37947 0.157218 8.44304 0.244808 8.47562 0.345301L9.98812 5.00155H15C15.1068 5.0015 15.2108 5.03564 15.2968 5.09898C15.3828 5.16232 15.4462 5.25152 15.4778 5.35353C15.5094 5.45554 15.5076 5.56499 15.4725 5.66586C15.4374 5.76672 15.3709 5.8537 15.2828 5.91405L11.2187 8.69843L12.7853 13.34C12.8107 13.4151 12.8178 13.4952 12.8061 13.5737C12.7944 13.6521 12.7643 13.7267 12.7181 13.7912C12.6719 13.8557 12.611 13.9082 12.5405 13.9445C12.47 13.9808 12.3918 13.9998 12.3125 14Z" fill="black"/>
</svg>
